Coordinates
version=1
nRows=9
nColumns=24
inDegrees=yes

Units are S.I. units (second, meters, Newtons, ...)
Angles are in degrees.

endheader
time	pelvis_tilt	pelvis_list	pelvis_rotation	pelvis_tx	pelvis_ty	pelvis_tz	hip_flexion_r	hip_adduction_r	hip_rotation_r	knee_angle_r	ankle_angle_r	subtalar_angle_r	mtp_angle_r	hip_flexion_l	hip_adduction_l	hip_rotation_l	knee_angle_l	ankle_angle_l	subtalar_angle_l	mtp_angle_l	lumbar_extension	lumbar_bending	lumbar_rotation
      3.75000000	    -13.53946993	     -0.32795832	     -0.54199066	      0.08235639	      0.94914293	     -0.00935072	     37.24217176	     -0.29101116	     -2.55551061	     -9.70185774	     -1.94675523	      0.00000000	      0.00000000	      6.37953157	      4.06182230	      7.72512027	    -15.13313866	     16.01189822	      0.00000000	      0.00000000	      9.21936275	      1.30586927	     -5.42447833
      3.76000000	    -13.62668282	     -0.40927181	     -0.32702718	      0.08286689	      0.94798205	     -0.00813597	     37.28923524	     -0.13787370	     -2.30941092	    -10.15868975	     -2.24024924	      0.00000000	      0.00000000	      6.00653379	      3.91697133	      7.87877401	    -15.23818866	     16.02979120	      0.00000000	      0.00000000	      9.34494612	      1.32412472	     -5.59418283
      3.77000000	    -13.69981839	     -0.53937724	     -0.22678315	      0.08346322	      0.94682877	     -0.00678688	     37.36209678	      0.12991091	     -1.99201379	    -10.76963113	     -2.71273389	      0.00000000	      0.00000000	      5.62989030	      3.71731384	      8.07404352	    -15.39115499	     16.07120460	      0.00000000	      0.00000000	      9.45402033	      1.43320355	     -5.64106765
      3.78000000	    -13.81304917	     -0.67813232	     -0.29099574	      0.08420695	      0.94568582	     -0.00513662	     37.42623109	      0.51011694	     -1.56119763	    -11.31076878	     -3.56041567	      0.00000000	      0.00000000	      5.31471137	      3.48587996	      8.02479634	    -15.61550771	     16.24439636	      0.00000000	      0.00000000	      9.62712948	      1.57697712	     -5.50541730
      3.79000000	    -13.87381123	     -0.83428225	     -0.21838912	      0.08507199	      0.94468675	     -0.00362155	     37.46659986	      0.82800025	     -1.19558577	    -12.05523497	     -3.92531772	      0.00000000	      0.00000000	      4.94798150	      3.24678014	      8.17928621	    -15.83808698	     16.17285090	      0.00000000	      0.00000000	      9.75291108	      1.71575341	     -5.56549305
      3.80000000	    -13.96441807	     -0.97316205	     -0.41066006	      0.08597421	      0.94372848	     -0.00171842	     37.59829079	      1.29194706	     -0.62945808	    -12.91278027	     -4.49005427	      0.00000000	      0.00000000	      4.63734829	      3.00510280	      8.05156281	    -16.13613444	     16.15466622	      0.00000000	      0.00000000	      9.90754489	      1.88314106	     -5.32111913
      3.81000000	    -14.00603627	     -1.15853757	     -0.41023198	      0.08702654	      0.94303020	     -0.00006227	     37.63740086	      1.67518829	     -0.18513988	    -13.80389397	     -4.77187478	      0.00000000	      0.00000000	      4.28352531	      2.73352966	      8.23480533	    -16.43113846	     15.97926974	      0.00000000	      0.00000000	     10.02571515	      2.07244748	     -5.35044008
      3.82000000	    -14.03039682	     -1.35219287	     -0.54377235	      0.08810236	      0.94251792	      0.00181012	     37.70877429	      2.14812247	      0.32082049	    -14.81857811	     -4.99139402	      0.00000000	      0.00000000	      3.95419347	      2.44789586	      8.32895189	    -16.81561997	     15.72473984	      0.00000000	      0.00000000	     10.11763316	      2.29684001	     -5.23872196
      3.83000000	    -14.06714262	     -1.45918819	     -0.94971612	      0.08927545	      0.94212806	      0.00422148	     37.85786547	      2.73530833	      1.22655121	    -16.01009822	     -4.83266779	      0.00000000	      0.00000000	      3.65573946	      2.20756127	      7.81790489	    -17.23630952	     15.30597827	      0.00000000	      0.00000000	     10.23257788	      2.45330309	     -4.82748902
